# xmcd
#
# Track frame offsets:
# 150
# 14366
# 26536
# 41387
# 50910
# 65884
# 79030
# 89852
# 104029
# 115731
# 130014
# 140517
#
# Disc length: 2079 seconds
#
#
# Revision: 0
# Processed by: cddbd v1.4PL0 Copyright (c) Steve Scherf et al.
# Submitted via: FreeRIP 2.00 
#
DISCID=ac081d0c
DTITLE=Various Artist - Hats Off, A Tribute To Merle Haggard
DYEAR=1998
DGENRE=Country
TTITLE0=I'm A Lonesome Fugitive
TTITLE1=If We Make It Through December
TTITLE2=Mama Tried
TTITLE3=I Take A Lot Of Pride In What I Am
TTITLE4=Hungry Eyes
TTITLE5=Fightin' Side Of Me
TTITLE6=Okie From Muskogee
TTITLE7=Daddy Frank (The Guitar Man)
TTITLE8=Everybody's Had The Blues
TTITLE9=Big City
TTITLE10=Cherokee Maiden
TTITLE11=Always Wanting You
EXTD=CMH Records
EXTT0=
EXTT1=
EXTT2=
EXTT3=
EXTT4=
EXTT5=
EXTT6=
EXTT7=
EXTT8=
EXTT9=
EXTT10=
EXTT11=
PLAYORDER=
